<svg width="569" height="467" viewBox="0 0 569 467" fill="none" xmlns="http://www.w3.org/2000/svg">
<rect width="569" height="435" fill="white"/>
<path d="M34.75 361.39C38.0167 357.143 42.38 355.02 47.84 355.02C53.3 355.02 57.6633 357.167 60.93 361.46C64.2433 365.707 65.9 372.053 65.9 380.5C65.9 388.947 64.2433 395.293 60.93 399.54C57.6633 403.787 53.3 405.91 47.84 405.91C42.38 405.91 38.0167 403.787 34.75 399.54C31.4833 395.293 29.85 388.947 29.85 380.5C29.85 372.007 31.4833 365.637 34.75 361.39ZM38.95 395.2C40.91 398.7 43.8733 400.45 47.84 400.45C51.8067 400.45 54.77 398.7 56.73 395.2C58.7367 391.653 59.74 386.753 59.74 380.5C59.74 374.2 58.7367 369.3 56.73 365.8C54.77 362.253 51.8067 360.48 47.84 360.48C43.8733 360.48 40.91 362.253 38.95 365.8C36.99 369.3 36.01 374.2 36.01 380.5C36.01 386.753 36.99 391.653 38.95 395.2ZM102.72 388.06H109.44V393.52H102.72V405H96.7V393.52H72.48V386.52L94.11 356H102.72V388.06ZM78.92 388.06H96.77V362.93H95.23L78.92 386.52V388.06Z" fill="#393EB9"/>
<path d="M482.73 368.625L362.254 355.163C354.849 358.823 331.522 392.793 324.476 394.913C282.774 409.914 240.009 423.911 223.165 415.431C223.165 415.431 205.133 402.796 207.402 394.913C208.578 390.824 217.009 382.857 219.791 379.639C222.573 376.42 244.571 368.625 244.571 368.625C257.3 364.046 311.93 348.838 333.4 344.547L297.758 262.57C275.032 275.737 248.473 341.71 221.818 338.339C221.818 338.339 200.519 350.731 190.882 346.599C181.245 342.468 164.726 334.477 164.726 334.477L167.619 310.806L199.142 284.65C203.891 278.817 258.437 242.481 289.384 239.997L241.919 142.555C228.941 142.233 198.481 229.385 167.619 221.591C167.619 221.591 148.206 218.263 148.206 200.675C148.206 186.909 174.362 154.522 174.362 154.522C183.923 143.239 216.239 104.489 241.726 112.071C243.103 112.481 245.856 112.071 258.552 129.118L271.621 154.522L285.034 182.97C287.833 161.786 364.08 174.372 387.742 154.522L429.181 142.555L457.951 154.522C457.951 154.522 469.632 162.914 471.717 173.142C473.732 183.028 440.544 192.415 440.544 192.415C424.024 203.428 328.931 170.96 297.758 196.687L319.143 247.126C322.948 260.75 322.948 262.57 327.078 270.386L356.079 323.464C366.948 311.935 408.392 332.833 449.551 323.464C449.551 323.464 474.156 323.206 482.73 325.949C493.443 329.376 497.873 332.833 497.873 332.833C497.873 332.833 502.694 348.684 500.627 355.163C498.803 360.877 482.73 368.625 482.73 368.625Z" fill="#C5BD00"/>
</svg>
