<svg width="569" height="466" viewBox="0 0 569 466" fill="none" xmlns="http://www.w3.org/2000/svg">
<rect width="569" height="435" fill="white"/>
<path d="M34.75 361.39C38.0167 357.143 42.38 355.02 47.84 355.02C53.3 355.02 57.6633 357.167 60.93 361.46C64.2433 365.707 65.9 372.053 65.9 380.5C65.9 388.947 64.2433 395.293 60.93 399.54C57.6633 403.787 53.3 405.91 47.84 405.91C42.38 405.91 38.0167 403.787 34.75 399.54C31.4833 395.293 29.85 388.947 29.85 380.5C29.85 372.007 31.4833 365.637 34.75 361.39ZM38.95 395.2C40.91 398.7 43.8733 400.45 47.84 400.45C51.8067 400.45 54.77 398.7 56.73 395.2C58.7367 391.653 59.74 386.753 59.74 380.5C59.74 374.2 58.7367 369.3 56.73 365.8C54.77 362.253 51.8067 360.48 47.84 360.48C43.8733 360.48 40.91 362.253 38.95 365.8C36.99 369.3 36.01 374.2 36.01 380.5C36.01 386.753 36.99 391.653 38.95 395.2ZM75.28 356H103.91V362.86L91.66 373.36V374.83C96 374.923 99.5 376.277 102.16 378.89C104.867 381.503 106.22 385.12 106.22 389.74C106.22 394.733 104.61 398.677 101.39 401.57C98.17 404.463 94.0167 405.91 88.93 405.91C84.03 405.91 80.0167 404.533 76.89 401.78C73.7633 399.027 72.06 395.527 71.78 391.28H77.94C78.22 394.033 79.3633 396.25 81.37 397.93C83.4233 399.61 85.9433 400.45 88.93 400.45C92.3367 400.45 95.0433 399.493 97.05 397.58C99.0567 395.667 100.06 393.053 100.06 389.74C100.06 386.473 99.1033 383.93 97.19 382.11C95.2767 380.243 92.5467 379.31 89 379.31C87.2733 379.31 85.85 379.45 84.73 379.73V373.22L96.7 362.86V361.32H75.28V356Z" fill="#393EB9"/>
<path d="M482.422 368.518L361.946 355.055C354.541 358.715 331.214 392.685 324.167 394.805C282.465 409.807 239.7 423.804 222.857 415.323C222.857 415.323 204.825 402.688 207.093 394.805C208.269 390.716 216.701 382.749 219.483 379.531C222.265 376.312 244.262 368.518 244.262 368.518C256.991 363.939 311.622 348.731 333.092 344.439L297.45 262.463C274.724 275.629 248.164 341.602 221.509 338.231C221.509 338.231 200.21 350.623 190.573 346.491C180.936 342.36 164.417 334.369 164.417 334.369L167.31 310.699L198.833 284.542C203.583 278.709 258.128 242.374 289.076 239.889L241.611 142.447C228.632 142.125 198.172 229.278 167.31 221.483C167.31 221.483 147.897 218.155 147.897 200.567C147.897 186.801 174.054 154.414 174.054 154.414C183.614 143.132 215.05 112.847 241.611 114.104L324.168 83.5519C359.148 45.9325 402.498 94.5117 412.213 101.448C409.908 117.517 285.293 103.859 258.244 129.01L271.312 154.414L284.725 182.863C287.524 161.678 363.772 174.264 387.433 154.414L428.873 142.447L457.642 154.414C457.642 154.414 469.323 162.806 471.409 173.034C473.424 182.92 440.236 192.307 440.236 192.307C423.716 203.32 328.623 170.852 297.45 196.579L318.835 247.018C330.726 235.121 403.953 245.396 452.136 239.89C452.136 239.89 479.398 236.245 487.928 239.889C496.23 243.436 509.955 255.633 509.955 255.633L509.955 276.282C493.435 307.945 351.505 246.696 324.167 271.044L355.77 323.356C366.639 311.827 408.083 332.725 449.242 323.356C449.242 323.356 473.847 323.099 482.422 325.842C493.135 329.269 497.565 332.725 497.565 332.725C497.565 332.725 502.385 348.577 500.318 355.055C498.495 360.77 482.422 368.518 482.422 368.518Z" fill="url(#paint0_radial)"/>
<defs>
<radialGradient id="paint0_radial" cx="0" cy="0" r="1" gradientUnits="userSpaceOnUse" gradientTransform="translate(321.878 252.448) rotate(64.384) scale(180.076 246.318)">
<stop stop-color="#00632D"/>
<stop offset="1" stop-color="#C5BD00"/>
</radialGradient>
</defs>
</svg>
