<svg width="1053" height="877" viewBox="0 0 1053 877" fill="none" xmlns="http://www.w3.org/2000/svg">
<path d="M347.145 146.153C352.621 183.009 467.894 286.599 524.846 333.786L228.944 192.565C176.527 194.894 172.721 227.451 177.371 243.438L188.611 319.094C192.578 345.796 306.964 452.372 363.661 502.322L226.4 420.371L140.153 390.939C109.967 386.763 50.2307 401.058 52.7734 491.652C55.3161 582.246 223.733 683.068 307.624 722.155L559.449 809.827C586.415 807.64 690.285 766.889 738.849 746.786C799.566 726.849 919.257 598.689 971.513 537.101C1024.3 463.759 1009.57 420.765 995.609 408.435L890.314 296.719C702.913 100.771 472.717 72.9586 381.044 83.5458L347.145 146.153Z" fill="#1EC24C"/>
</svg>
