<svg width="569" height="466" viewBox="0 0 569 466" fill="none" xmlns="http://www.w3.org/2000/svg">
<rect width="569" height="435" fill="white"/>
<path d="M34.75 361.39C38.0167 357.143 42.38 355.02 47.84 355.02C53.3 355.02 57.6633 357.167 60.93 361.46C64.2433 365.707 65.9 372.053 65.9 380.5C65.9 388.947 64.2433 395.293 60.93 399.54C57.6633 403.787 53.3 405.91 47.84 405.91C42.38 405.91 38.0167 403.787 34.75 399.54C31.4833 395.293 29.85 388.947 29.85 380.5C29.85 372.007 31.4833 365.637 34.75 361.39ZM38.95 395.2C40.91 398.7 43.8733 400.45 47.84 400.45C51.8067 400.45 54.77 398.7 56.73 395.2C58.7367 391.653 59.74 386.753 59.74 380.5C59.74 374.2 58.7367 369.3 56.73 365.8C54.77 362.253 51.8067 360.48 47.84 360.48C43.8733 360.48 40.91 362.253 38.95 365.8C36.99 369.3 36.01 374.2 36.01 380.5C36.01 386.753 36.99 391.653 38.95 395.2ZM73.88 405V399.54H85.5V362.44H84.1L73.81 369.37V362.93L84.03 356H91.66V399.54H102.37V405H73.88Z" fill="#393EB9"/>
<path d="M486.794 362.761L369.517 373.377C362.112 377.037 338.785 411.007 331.739 413.127C290.036 428.129 245.924 414.919 229.08 406.439C229.08 406.439 213.913 397.744 216.181 389.861C217.357 385.772 217.529 383.443 220.311 380.224C223.092 377.006 230.428 373.377 230.428 373.377C243.156 368.798 319.193 367.053 340.663 362.761L305.021 280.785C282.295 293.951 216.68 356.063 190.025 352.692C190.025 352.692 174.882 348.561 165.245 344.43C155.608 340.298 149.111 323.779 149.111 323.779L165.245 305.883L195.531 296.246C200.28 290.413 265.699 260.696 296.647 258.212L249.182 160.769C236.204 160.447 175.457 203.546 144.595 195.751C144.595 195.751 122.569 188.264 130.829 172.736C133.236 168.21 174.882 144.815 174.882 144.815C184.442 133.533 222.621 131.169 249.182 132.426L292.297 55.3349C327.277 17.7156 367.533 34.6327 377.248 41.5695C374.942 57.6377 292.864 122.181 265.815 147.332L278.884 172.736L292.296 201.185C295.095 180 374.236 157.783 397.898 137.932L436.444 133.802L470.86 142.062C470.86 142.062 477.035 157.99 479.12 168.218C481.135 178.104 447.807 179.232 447.807 179.232C431.287 190.245 336.194 189.174 305.021 214.901L326.406 265.34C338.297 253.443 410.659 250.767 436.444 228.792C436.444 228.792 467.836 219.641 476.366 223.285C484.668 226.832 498.393 239.805 498.393 239.805L502.523 258.212C531.432 294.129 359.076 265.018 331.739 289.366L353.845 341.678C364.714 330.149 421.401 329.835 447.807 317.615C447.807 317.615 462.285 314.872 470.86 317.615C481.573 321.042 492.886 336.172 492.886 336.172C492.886 336.172 500.46 346.213 498.393 352.691C496.569 358.406 486.794 362.761 486.794 362.761Z" fill="#00632D"/>
</svg>
